<svg version="1" xmlns="http://www.w3.org/2000/svg" width="682.667" height="682.667" viewBox="0 0 512.000000 512.000000"><path d="M238.4 1c-55.2 3.8-111.3 27.2-151 63.1l-4.1 3.7 4.8 3.7c11.4 8.7 25.8 26.3 35.1 43 2.5 4.4 28.3 59.6 57.4 122.7 29.1 63.1 53.2 114.8 53.5 114.8.3 0 27.1-59.5 59.5-132.1 32.4-72.7 59.5-132.4 60.2-132.6.7-.3 1.5-.4 1.7-.1.3.2 9.9 60.5 21.5 133.9 11.5 73.4 21.9 137.9 23.1 143.4 2.9 13.9 8.3 30.2 13.9 42.1 5 10.7 14.4 25.5 18.6 29.5l2.6 2.4 6.6-7c29.2-31.3 50.4-69.2 61.1-109.5 23.5-88.4-1.6-181.9-66.3-246.6C392.1 31 335.4 5.3 272.3 1c-16.1-1.1-17.5-1.1-33.9 0zM66.5 84.4c-1.1 1.3-5.4 6.6-9.6 11.8-45.6 55.9-65 130.3-52.8 202.6 5.1 30.6 16.8 62 33.2 89.4l5.2 8.8 3.5-.6c10.8-1.9 22.1-11.3 25.2-21 .9-2.8 7.6-57.3 15.4-125.2l13.8-120.3-2.7-5.4c-1.4-3-5.2-9.5-8.3-14.5-4.7-7.7-8.4-12.7-19.4-26.2-1.5-1.8-1.6-1.8-3.5.6z"/><path d="M299 243.7c-63.7 143.6-62.9 141.8-66 156.6-.9 4.4-1.6 5.7-3 5.7-1.9 0 .3 4.7-81-172.3-18.9-41.1-34.7-74.7-35-74.7-.3 0-4.9 50.1-10.3 111.3-7.7 87.3-9.6 112-8.8 114.7 1.2 4.1 6.3 9.4 10.4 10.9 1.6.6 5.1 1.1 7.8 1.1 3.7 0 4.9.4 4.9 1.5 0 1.3-4.7 1.5-36.6 1.5H44.8l3.8 5.2c16.8 23.6 41.1 47 65.9 63.5 79 52.8 181.7 57 265 11 10.2-5.6 24.2-14.8 32.8-21.5l5.8-4.6-6.9-7c-20.2-20.9-32.4-42.5-40.2-71.8-3.2-12.1-5.2-25.8-21.1-142.8-5.6-41.5-10.5-75.8-10.9-76.3-.3-.4-18.3 39.2-40 88z"/></svg>